<?xml version="1.0" encoding="UTF-8"?>
<svg width="180px" height="90px" viewBox="0 0 180 90" version="1.1" xmlns="http://www.w3.org/2000/svg" xmlns:xlink="http://www.w3.org/1999/xlink">
    <!-- Generator: Sketch 47.1 (45422) - http://www.bohemiancoding.com/sketch -->
    <title>bg_first_gastby_ranking</title>
    <desc>Created with Sketch.</desc>
    <defs>
        <linearGradient x1="18.6340332%" y1="-8.80432129%" x2="74.9237061%" y2="112.310791%" id="linearGradient-1">
            <stop stop-color="#F8D666" offset="0%"></stop>
            <stop stop-color="#E38F0E" offset="100%"></stop>
        </linearGradient>
        <linearGradient x1="92.6166341%" y1="60.476925%" x2="14.9051086%" y2="100%" id="linearGradient-2">
            <stop stop-color="#E1900A" offset="0%"></stop>
            <stop stop-color="#FFE858" offset="100%"></stop>
        </linearGradient>
        <linearGradient x1="31.5503604%" y1="100%" x2="50%" y2="29.4838583%" id="linearGradient-3">
            <stop stop-color="#E1900A" offset="0%"></stop>
            <stop stop-color="#FFE858" offset="100%"></stop>
        </linearGradient>
        <linearGradient x1="50%" y1="0%" x2="50%" y2="100%" id="linearGradient-4">
            <stop stop-color="#9A34C9" offset="0%"></stop>
            <stop stop-color="#5A167A" offset="100%"></stop>
        </linearGradient>
    </defs>
    <g id="six" stroke="none" stroke-width="1" fill="none" fill-rule="evenodd">
        <g id="bg_first_gastby_ranking" transform="translate(-1.000000, 0.000000)">
            <circle id="Oval-8" stroke="url(#linearGradient-1)" stroke-width="2" cx="91" cy="66" r="23"></circle>
            <g id="Group-2-Copy" transform="translate(35.500000, 59.500000) scale(-1, 1) translate(-35.500000, -59.500000) translate(0.000000, 27.000000)" fill="url(#linearGradient-2)" opacity="0.75999999">
                <path d="M7,43 C7,57.9116882 19.6308594,60 33,60 C52.882251,60 67.9214652,34.6889709 67.9214652,34.6889709" id="Oval-9" transform="translate(38.000000, 46.500000) rotate(8.000000) translate(-38.000000, -46.500000) "></path>
                <path d="M6,34 C6,48.9116882 18.6308594,51 32,51 C51.882251,51 66.9214652,25.6889709 66.9214652,25.6889709" id="Oval-9-Copy" transform="translate(37.000000, 37.500000) rotate(-12.000000) translate(-37.000000, -37.500000) "></path>
                <path d="M3.33092891,24.3508665 C3.33092891,39.2625548 15.7436433,41.1264382 29.112784,41.1264382 C48.995035,41.1264382 64.0342491,15.8154092 64.0342491,15.8154092 C64.6299075,14.8826163 64.2275464,14.2729383 63.1444849,14.4521768 L3.33092891,24.3508665 Z" id="Oval-9-Copy-2" transform="translate(33.820455, 27.773677) rotate(-30.000000) translate(-33.820455, -27.773677) "></path>
            </g>
            <g id="Group-2-Copy-2" transform="translate(111.000000, 27.000000)" fill="url(#linearGradient-2)" opacity="0.75999999">
                <path d="M7,43 C7,57.9116882 19.6308594,60 33,60 C52.882251,60 67.9214652,34.6889709 67.9214652,34.6889709" id="Oval-9" transform="translate(38.000000, 46.500000) rotate(8.000000) translate(-38.000000, -46.500000) "></path>
                <path d="M6,34 C6,48.9116882 18.6308594,51 32,51 C51.882251,51 66.9214652,25.6889709 66.9214652,25.6889709" id="Oval-9-Copy" transform="translate(37.000000, 37.500000) rotate(-12.000000) translate(-37.000000, -37.500000) "></path>
                <path d="M3.33092891,24.3508665 C3.33092891,39.2625548 15.7436433,41.1264382 29.112784,41.1264382 C48.995035,41.1264382 64.0342491,15.8154092 64.0342491,15.8154092 C64.6299075,14.8826163 64.2275464,14.2729383 63.1444849,14.4521768 L3.33092891,24.3508665 Z" id="Oval-9-Copy-2" transform="translate(33.820455, 27.773677) rotate(-30.000000) translate(-33.820455, -27.773677) "></path>
            </g>
            <g id="002-shapes" transform="translate(71.000000, 0.000000)" fill-rule="nonzero">
                <path d="M21.7528906,2.28984375 L21.13625,2.28984375 C20.9033594,2.28984375 20.7146094,2.10109375 20.7146094,1.86820313 L20.7146094,0.804921875 C20.7146094,0.411953125 20.411875,0.069296875 20.0190625,0.057578125 C19.6127344,0.0453125 19.279375,0.37125 19.279375,0.774921875 L19.279375,1.86828125 C19.279375,2.10117188 19.090625,2.28992188 18.8577344,2.28992188 L18.2090625,2.28992188 C17.8160937,2.28992188 17.4734375,2.59265625 17.4617187,2.98546875 C17.4494531,3.39179688 17.7753906,3.72515625 18.1790625,3.72515625 L18.8577344,3.72515625 C19.090625,3.72515625 19.279375,3.91390625 19.279375,4.14679688 L19.279375,5.95835938 C19.279375,6.35132813 19.5821094,6.69398438 19.9749219,6.70570313 C20.38125,6.71796875 20.7146875,6.39203125 20.7146875,5.98835938 L20.7146875,4.14679688 C20.7146875,3.91390625 20.9034375,3.72515625 21.1363281,3.72515625 L21.783125,3.72515625 C22.1867969,3.72515625 22.5125781,3.391875 22.5004687,2.98546875 C22.4884375,2.59257813 22.1458594,2.28984375 21.7528906,2.28984375 Z" id="Shape" fill="#7C54B8"></path>
                <path d="M26.6972656,15.0298438 C27.9565625,14.37 29.3896875,13.996875 30.9099219,13.996875 C35.9301562,13.996875 39.9998437,18.0665625 39.9998437,23.0867969 C39.9998437,23.545625 40.02375,24.9872656 39.2671094,26.5135938 C38.1029687,28.8620313 36.2060156,29.2075781 34.5467969,31.6804688 C33.6969531,32.9471094 33.3041406,34.1767188 33.1055469,35.0167188 L6.89429687,35.0167188 C6.695625,34.1767188 6.30296875,32.9471094 5.453125,31.6804688 C3.79390625,29.2075781 1.89695312,28.8620313 0.7328125,26.5135938 C-0.023828125,24.9871875 7.81249999e-05,23.5454688 7.81249999e-05,23.0867969 C7.81249999e-05,18.0665625 4.06976562,13.996875 9.09,13.996875 C10.6102344,13.996875 12.0433594,14.37 13.3026562,15.0298438" id="Shape" fill="url(#linearGradient-3)" opacity="0.845767654"></path>
                <g id="Group" transform="translate(5.781250, 13.984375)">
                    <path d="M34.2155469,9.10234375 C34.2155469,4.08210937 30.1458594,0.012421875 25.125625,0.012421875 C23.6053906,0.012421875 22.1722656,0.385546875 20.9129687,1.04539062 L17.8310156,1.04539062 C20.7307812,2.56414062 22.7096094,5.601875 22.7096094,9.10226562 C22.7096094,9.56109375 22.7335156,11.0027344 21.976875,12.5290625 C20.8127344,14.8775 22.2278125,15.2230469 20.5685156,17.6959375 C19.7186719,18.9625781 19.3258594,20.1921875 19.1272656,21.0321875 L27.3210937,21.0321875 C27.5197656,20.1921875 27.9124219,18.9625781 28.7623437,17.6959375 C30.4215625,15.2230469 32.3185156,14.8775 33.4826562,12.5290625 C34.2395312,11.0028125 34.2155469,9.56117187 34.2155469,9.10234375 Z" id="Shape" fill="url(#linearGradient-3)" opacity="0.845767654"></path>
                    <path d="M0.00375,18.1744531 C0.648671875,19.2676563 0.9703125,20.2985938 1.14382812,21.0323438 L27.3549219,21.0323438 C27.5283594,20.2986719 27.8500781,19.2677344 28.495,18.1744531 L0.00375,18.1744531 Z" id="Shape" fill="#FFB966"></path>
                </g>
                <path d="M33.1025,35.0167188 C33.2759375,34.2830469 33.5976562,33.2521094 34.2425781,32.1588281 L26.04875,32.1588281 C25.4038281,33.2520313 25.0821875,34.2829688 24.9086719,35.0167188 L33.1025,35.0167188 Z" id="Shape" fill="#F7A05E"></path>
                <path d="M23.8477344,10.6535938 L16.1654687,10.6535938 L16.1654687,9.8296875 C16.1654687,7.70828125 17.8851562,5.98859375 20.0065625,5.98859375 L20.0065625,5.98859375 C22.1279687,5.98859375 23.8477344,7.70828125 23.8477344,9.8296875 L23.8477344,10.6535938 Z" id="Shape" fill="#FFDB6C"></path>
                <path d="M20.0066406,5.98851562 L20.0066406,5.98851562 C19.5651562,5.98851562 19.1415625,6.06390625 18.7467969,6.20101562 C20.2492187,6.72257812 21.328125,8.1496875 21.328125,9.8296875 L21.328125,10.6535937 L23.8477344,10.6535937 L23.8477344,9.8296875 C23.8477344,7.70820312 22.1280469,5.98851562 20.0066406,5.98851562 Z" id="Shape" fill="#FFB966"></path>
                <path d="M15.0721875,15.3185937 C14.4267969,15.3517187 11.3694531,15.5764844 9.13,18.0934375 C7.54375,19.8763281 6.445,22.7222656 7.20039063,25.2217969 C8.12460938,28.2800781 11.1978125,28.7464062 12.22375,32.6372656 C12.4805469,33.61125 12.5175,34.4717969 12.5107813,35.0167187 L28.13,35.0167187 C28.1232813,34.4717969 28.1602344,33.6113281 28.4170313,32.6372656 C29.4429688,28.7464062 32.5161719,28.2801562 33.4403906,25.2217969 C34.1957031,22.7222656 33.0971094,19.87625 31.5107813,18.0934375 C29.2713281,15.5764844 26.2139844,15.3517187 25.5685938,15.3185937" id="Shape" fill="url(#linearGradient-4)"></path>
                <path d="M28.5607031,32.1588281 L12.0800781,32.1588281 C12.1310937,32.3130469 12.1798437,32.4709375 12.2238281,32.6372656 C12.480625,33.61125 12.5175781,34.4717969 12.5108594,35.0167188 L28.1300781,35.0167188 C28.1233594,34.4717969 28.1603125,33.6113281 28.4171094,32.6372656 C28.4609375,32.4710156 28.5096875,32.3130469 28.5607031,32.1588281 Z" id="Shape" fill="#674799"></path>
                <path d="M16.5864844,15.3185937 C15.7478125,18.5623437 15.2860937,22.0964062 15.2860937,25.7957031 C15.2860937,29.0258594 15.6382031,32.1215625 16.2857031,35.0166406 L23.7276562,35.0166406 C24.3751562,32.1215625 24.7272656,29.0258594 24.7272656,25.7957031 C24.7272656,22.0964062 24.265625,18.5623437 23.426875,15.3185937 L16.5864844,15.3185937 Z" id="Shape" fill="url(#linearGradient-3)" opacity="0.845767654"></path>
                <path d="M16.285625,35.0167188 L23.7275781,35.0167188 C23.9360937,34.0842969 24.1135937,33.1307031 24.2589062,32.1588281 L15.7542969,32.1588281 C15.8997656,33.1307031 16.0771094,34.0842969 16.285625,35.0167188 Z" id="Shape" fill="#FFB966"></path>
                <path d="M31.5107813,18.0934375 C29.2713281,15.5764844 26.2139844,15.3517187 25.5685938,15.3185937 L23.4267969,15.3185937 C24.2654688,18.5623437 24.7272656,22.0964062 24.7272656,25.7957031 C24.7272656,29.015625 24.3772656,32.1294531 23.7336719,35.0166406 L28.1300781,35.0166406 C28.1233594,34.4717187 28.1603125,33.61125 28.4171094,32.6371875 C29.4430469,28.7463281 32.51625,28.2800781 33.4404688,25.2217187 C34.195625,22.7222656 33.0970313,19.8763281 31.5107813,18.0934375 Z" id="Shape" fill="url(#linearGradient-4)"></path>
                <path d="M28.5607031,32.1588281 L24.261875,32.1588281 C24.1174219,33.1321875 23.9409375,34.0863281 23.7335938,35.0167188 L28.13,35.0167188 C28.1232813,34.4717969 28.1602344,33.6113281 28.4170313,32.6372656 C28.4609375,32.4710156 28.5096875,32.3130469 28.5607031,32.1588281 Z" id="Shape" fill="#553D82"></path>
                <path d="M25.5782812,15.3185938 L14.435,15.3185938 C13.1467187,15.3185938 12.1024219,14.2742969 12.1024219,12.9860156 L12.1024219,12.9860156 C12.1024219,11.6977344 13.1467187,10.6534375 14.435,10.6534375 L25.5782812,10.6534375 C26.8665625,10.6534375 27.9108594,11.6977344 27.9108594,12.9860156 L27.9108594,12.9860156 C27.9108594,14.274375 26.8664062,15.3185938 25.5782812,15.3185938 Z" id="Shape" fill="#FD4DD7"></path>
                <path d="M25.5685156,10.6535938 L21.9997656,10.6535938 C23.2880469,10.6535938 24.3323437,11.6978906 24.3323437,12.9861719 L24.3323437,12.9861719 C24.3323437,14.2744531 23.2880469,15.31875 21.9997656,15.31875 L25.5685156,15.31875 C26.8567969,15.31875 27.9010937,14.2744531 27.9010937,12.9861719 L27.9010937,12.9861719 C27.9010937,11.6978906 26.8567969,10.6535938 25.5685156,10.6535938 Z" id="Shape" fill="#E846AA"></path>
                <g id="Group" transform="translate(16.406250, 12.265625)" fill="#FFDB6C">
                    <circle id="Oval" cx="0.7390625" cy="0.72046875" r="1"></circle>
                    <circle id="Oval" cx="3.62390625" cy="0.72046875" r="1"></circle>
                    <circle id="Oval" cx="6.5096875" cy="0.72046875" r="1"></circle>
                </g>
                <path d="M32.9717188,34.8253125 L7.0415625,34.8253125 C6.34929688,34.8253125 5.78820313,35.3948438 5.78820313,36.0871094 L5.78820313,38.6892969 C5.78820313,39.3815625 6.349375,39.9426563 7.0415625,39.9426563 L32.9716406,39.9426563 C33.6639063,39.9426563 34.225,39.3814844 34.225,38.6892969 L34.225,36.0871094 C34.2250781,35.3948437 33.6638281,34.8253125 32.9717188,34.8253125 Z" id="Shape" fill="#FC4C59"></path>
                <path d="M32.9717188,34.8253125 L28.5464063,34.8253125 C29.2386719,34.8253125 29.7997656,35.3948438 29.7997656,36.0871094 L29.7997656,38.6892969 C29.7997656,39.3815625 29.2385938,39.9426563 28.5464063,39.9426563 L32.9717188,39.9426563 C33.6639844,39.9426563 34.2250781,39.3814844 34.2250781,38.6892969 L34.2250781,36.0871094 C34.2250781,35.3948437 33.6638281,34.8253125 32.9717188,34.8253125 Z" id="Shape" fill="#E83A64"></path>
                <g id="Group" transform="translate(7.734375, 36.640625)" fill="#FFDB6C">
                    <circle id="Oval" cx="0.75640625" cy="0.7475" r="1"></circle>
                    <circle id="Oval" cx="3.64125" cy="0.7475" r="1"></circle>
                    <circle id="Oval" cx="6.52609375" cy="0.7475" r="1"></circle>
                    <circle id="Oval" cx="9.4109375" cy="0.7475" r="1"></circle>
                    <circle id="Oval" cx="12.2957812" cy="0.7475" r="1"></circle>
                    <circle id="Oval" cx="15.1815625" cy="0.7475" r="1"></circle>
                    <circle id="Oval" cx="20.95125" cy="0.7475" r="1"></circle>
                    <circle id="Oval" cx="18.0664062" cy="0.7475" r="1"></circle>
                    <circle id="Oval" cx="23.8360937" cy="0.7475" r="1"></circle>
                </g>
            </g>
        </g>
    </g>
</svg>