<?xml version="1.0" encoding="UTF-8"?>
<svg width="180px" height="88px" viewBox="0 0 180 88" version="1.1" xmlns="http://www.w3.org/2000/svg" xmlns:xlink="http://www.w3.org/1999/xlink">
    <!-- Generator: Sketch 47.1 (45422) - http://www.bohemiancoding.com/sketch -->
    <title>bg_first_diva_ranking</title>
    <desc>Created with Sketch.</desc>
    <defs>
        <linearGradient x1="18.6340332%" y1="-8.80432129%" x2="74.9237061%" y2="112.310791%" id="linearGradient-1">
            <stop stop-color="#F8D666" offset="0%"></stop>
            <stop stop-color="#E38F0E" offset="100%"></stop>
        </linearGradient>
        <linearGradient x1="92.6166341%" y1="60.476925%" x2="14.9051086%" y2="100%" id="linearGradient-2">
            <stop stop-color="#E1900A" offset="0%"></stop>
            <stop stop-color="#FFE858" offset="100%"></stop>
        </linearGradient>
        <linearGradient x1="50%" y1="0%" x2="50%" y2="100%" id="linearGradient-3">
            <stop stop-color="#A762FF" offset="0%"></stop>
            <stop stop-color="#883ABB" offset="100%"></stop>
        </linearGradient>
    </defs>
    <g id="six" stroke="none" stroke-width="1" fill="none" fill-rule="evenodd">
        <g id="bg_first_diva_ranking" transform="translate(-1.000000, 0.000000)">
            <circle id="Oval-8" stroke="url(#linearGradient-1)" stroke-width="2" cx="91" cy="60" r="23"></circle>
            <g id="Group-2-Copy" transform="translate(35.500000, 53.500000) scale(-1, 1) translate(-35.500000, -53.500000) translate(0.000000, 21.000000)" fill="url(#linearGradient-2)" opacity="0.75999999">
                <path d="M7,43 C7,57.9116882 19.6308594,60 33,60 C52.882251,60 67.9214652,34.6889709 67.9214652,34.6889709" id="Oval-9" transform="translate(38.000000, 46.500000) rotate(8.000000) translate(-38.000000, -46.500000) "></path>
                <path d="M6,34 C6,48.9116882 18.6308594,51 32,51 C51.882251,51 66.9214652,25.6889709 66.9214652,25.6889709" id="Oval-9-Copy" transform="translate(37.000000, 37.500000) rotate(-12.000000) translate(-37.000000, -37.500000) "></path>
                <path d="M3.33092891,24.3508665 C3.33092891,39.2625548 15.7436433,41.1264382 29.112784,41.1264382 C48.995035,41.1264382 64.0342491,15.8154092 64.0342491,15.8154092 C64.6299075,14.8826163 64.2275464,14.2729383 63.1444849,14.4521768 L3.33092891,24.3508665 Z" id="Oval-9-Copy-2" transform="translate(33.820455, 27.773677) rotate(-30.000000) translate(-33.820455, -27.773677) "></path>
            </g>
            <g id="Group-2-Copy-2" transform="translate(111.000000, 21.000000)" fill="url(#linearGradient-2)" opacity="0.75999999">
                <path d="M7,43 C7,57.9116882 19.6308594,60 33,60 C52.882251,60 67.9214652,34.6889709 67.9214652,34.6889709" id="Oval-9" transform="translate(38.000000, 46.500000) rotate(8.000000) translate(-38.000000, -46.500000) "></path>
                <path d="M6,34 C6,48.9116882 18.6308594,51 32,51 C51.882251,51 66.9214652,25.6889709 66.9214652,25.6889709" id="Oval-9-Copy" transform="translate(37.000000, 37.500000) rotate(-12.000000) translate(-37.000000, -37.500000) "></path>
                <path d="M3.33092891,24.3508665 C3.33092891,39.2625548 15.7436433,41.1264382 29.112784,41.1264382 C48.995035,41.1264382 64.0342491,15.8154092 64.0342491,15.8154092 C64.6299075,14.8826163 64.2275464,14.2729383 63.1444849,14.4521768 L3.33092891,24.3508665 Z" id="Oval-9-Copy-2" transform="translate(33.820455, 27.773677) rotate(-30.000000) translate(-33.820455, -27.773677) "></path>
            </g>
            <g id="001-monarchy" transform="translate(71.000000, 0.000000)" fill-rule="nonzero">
                <g id="Group" transform="translate(12.711864, 2.966102)" fill="url(#linearGradient-2)" opacity="0.697350543">
                    <polygon id="Shape" points="29.1817797 21.2705932 19.4564407 21.2705932 27.6855932 8.06432203 29.1817797 8.06432203"></polygon>
                    <polygon id="Shape" points="17.9602542 21.2705932 0.00584745763 21.2705932 8.23491525 0.0643220339 9.73118644 0.0643220339"></polygon>
                </g>
                <path d="M19.7763559,5.47771186 C20.3388983,5.81635593 20.9905085,6.02279661 21.6949153,6.02279661 C22.399322,6.02279661 23.0508475,5.81635593 23.6134746,5.47771186 L22.4429661,3.03042373 L20.9467797,3.03042373 L19.7763559,5.47771186 Z" id="Shape" fill="#E1B464"></path>
                <rect id="Rectangle-path" fill="#FF6464" x="2.24432203" y="26.4810169" width="38.9011864" height="5.23669492"></rect>
                <rect id="Rectangle-path" fill="#D2555A" x="2.24432203" y="26.4810169" width="11.9695763" height="5.23669492"></rect>
                <g id="Group" transform="translate(0.677966, 20.440678)" fill="#FFD782">
                    <path d="M41.215678,6.04033898 L0.818220339,6.04033898 C0.405084746,6.04033898 0.0700847458,5.70533898 0.0700847458,5.29220339 L0.0700847458,3.79601695 C0.0700847458,3.38288136 0.405084746,3.04788136 0.818220339,3.04788136 L41.215678,3.04788136 C41.6288136,3.04788136 41.9638136,3.38288136 41.9638136,3.79601695 L41.9638136,5.29220339 C41.9637288,5.70533898 41.6288136,6.04033898 41.215678,6.04033898 Z" id="Shape"></path>
                    <path d="M41.215678,13.5213559 L0.818220339,13.5213559 C0.405084746,13.5213559 0.0700847458,13.1863559 0.0700847458,12.7732203 L0.0700847458,11.2770339 C0.0700847458,10.8638983 0.405084746,10.5288983 0.818220339,10.5288983 L41.215678,10.5288983 C41.6288136,10.5288983 41.9638136,10.8638983 41.9638136,11.2770339 L41.9638136,12.7732203 C41.9637288,13.1863559 41.6288136,13.5213559 41.215678,13.5213559 Z" id="Shape"></path>
                    <circle id="Oval" cx="21.0169492" cy="4.54415254" r="4.48864407"></circle>
                </g>
                <circle id="Oval" fill="#FF6464" cx="21.6949153" cy="24.9848305" r="2.24432203"></circle>
                <path d="M23.1911017,26.4810169 C21.9516102,26.4810169 20.9467797,25.4761864 20.9467797,24.2366949 C20.9467797,23.6677966 21.165339,23.154322 21.5142373,22.7587288 C20.3607627,22.8522034 19.4505932,23.8072034 19.4505932,24.9848305 C19.4505932,26.224322 20.4554237,27.2291525 21.6949153,27.2291525 C22.3655085,27.2291525 22.9605085,26.9291525 23.3717797,26.4627966 C23.3111864,26.4677119 23.2530508,26.4810169 23.1911017,26.4810169 Z" id="Shape" fill="#D2555A"></path>
                <circle id="Oval" fill="#FFD782" cx="35.1607627" cy="24.9848305" r="2.99237288"></circle>
                <circle id="Oval" fill="#FF6464" cx="35.1607627" cy="24.9848305" r="1.12211864"></circle>
                <path d="M35.9088136,25.7328814 C35.2890678,25.7328814 34.7866949,25.2304237 34.7866949,24.6107627 C34.7866949,24.3262712 34.8959322,24.0694915 35.0704237,23.8716949 C34.4936441,23.9184746 34.0386441,24.3960169 34.0386441,24.9847458 C34.0386441,25.6044915 34.5411017,26.1068644 35.1607627,26.1068644 C35.4960169,26.1068644 35.7935593,25.9568644 35.9992373,25.7237288 C35.9688983,25.7262712 35.9397458,25.7328814 35.9088136,25.7328814 Z" id="Shape" fill="#D2555A"></path>
                <path d="M12.7177119,33.2138983 L12.7177119,31.7177119 C12.7177119,31.3045763 13.0527119,30.9695763 13.4658475,30.9695763 L1.49618644,30.9695763 C1.08305085,30.9695763 0.748050847,31.3045763 0.748050847,31.7177119 L0.748050847,33.2138983 C0.748050847,33.6270339 1.08305085,33.9620339 1.49618644,33.9620339 L13.4657627,33.9620339 C13.0527119,33.9620339 12.7177119,33.6270339 12.7177119,33.2138983 Z" id="Shape" fill="#FFC36E"></path>
                <circle id="Oval" fill="#FFD782" cx="21.6949153" cy="2.28228814" r="2.24432203"></circle>
                <path d="M23.1911017,3.77847458 C21.9516102,3.77847458 20.9467797,2.77364407 20.9467797,1.53415254 C20.9467797,0.965254237 21.165339,0.451779661 21.5142373,0.0561864407 C20.3607627,0.149661017 19.4505932,1.10466102 19.4505932,2.28228814 C19.4505932,3.52177966 20.4554237,4.52661017 21.6949153,4.52661017 C22.3655085,4.52661017 22.9605085,4.22661017 23.3717797,3.76025424 C23.3111864,3.76525424 23.2530508,3.77847458 23.1911017,3.77847458 Z" id="Shape" fill="#FFC36E"></path>
                <path d="M41.8936441,13.9474576 C41.6519492,13.9965254 41.4017797,14.0227966 41.1455085,14.0227966 C40.4411017,14.0227966 39.7895763,13.8163559 39.2269492,13.4777119 L40.3974576,11.0304237 L41.8936441,11.0304237 L41.8936441,13.9474576 Z" id="Shape" fill="#E1B464"></path>
                <circle id="Oval" fill="#FFD782" cx="41.1455085" cy="10.2822881" r="2.24432203"></circle>
                <g id="Group" transform="translate(0.677966, 8.000000)">
                    <path d="M41.9637288,3.77847458 C40.7242373,3.77847458 39.7194068,2.77364407 39.7194068,1.53415254 C39.7194068,0.965254237 39.9379661,0.451779661 40.2868644,0.0561864407 C39.1333898,0.149661017 38.2232203,1.10466102 38.2232203,2.28228814 C38.2232203,3.52177966 39.2280508,4.52661017 40.4675424,4.52661017 C41.1381356,4.52661017 41.7331356,4.22661017 42.1444068,3.76025424 C42.0838136,3.76525424 42.025678,3.77847458 41.9637288,3.77847458 Z" id="Shape" fill="#FFC36E"></path>
                    <path d="M12.0397458,17.7328814 L12.0397458,16.2366949 C12.0397458,15.8235593 12.3747458,15.4885593 12.7878814,15.4885593 L10.1857627,15.4885593 L2.31440678,3.03042373 L0.818220339,3.03042373 L0.818220339,15.4886441 C0.405084746,15.4886441 0.0700847458,15.8236441 0.0700847458,16.2367797 L0.0700847458,17.7329661 C0.0700847458,18.1461017 0.405084746,18.4811017 0.818220339,18.4811017 L4.96008475,18.4811017 C5.47754237,19.3752542 6.44372881,19.9772881 7.55110169,19.9772881 C8.65847458,19.9772881 9.62474576,19.3752542 10.1421186,18.4811017 L12.7877966,18.4811017 C12.3747458,18.4810169 12.0397458,18.1460169 12.0397458,17.7328814 Z" id="Shape" fill="url(#linearGradient-2)" opacity="0.697350543"></path>
                </g>
                <circle id="Oval" fill="#FF6464" cx="8.2290678" cy="24.9848305" r="1.12211864"></circle>
                <path d="M8.97720339,25.7328814 C8.35745763,25.7328814 7.85508475,25.2304237 7.85508475,24.6107627 C7.85508475,24.3262712 7.96432203,24.0694915 8.13881356,23.8716949 C7.5620339,23.9184746 7.1070339,24.3960169 7.1070339,24.9847458 C7.1070339,25.6044915 7.60949153,26.1068644 8.22915254,26.1068644 C8.56440678,26.1068644 8.86194915,25.9568644 9.06762712,25.7237288 C9.03720339,25.7262712 9.00813559,25.7328814 8.97720339,25.7328814 Z" id="Shape" fill="#D2555A"></path>
                <path d="M1.49618644,13.9474576 C1.73788136,13.9965254 1.98805085,14.0227966 2.24432203,14.0227966 C2.94872881,14.0227966 3.60025424,13.8163559 4.16288136,13.4777119 L2.99237288,11.0304237 L1.49618644,11.0304237 L1.49618644,13.9474576 Z" id="Shape" fill="#E1B464"></path>
                <circle id="Oval" fill="#FFD782" cx="2.24432203" cy="10.2822881" r="2.24432203"></circle>
                <path d="M3.74050847,11.7784746 C2.50101695,11.7784746 1.49618644,10.7736441 1.49618644,9.53415254 C1.49618644,8.96525424 1.71474576,8.45177966 2.06364407,8.05618644 C0.910169492,8.14974576 0,9.10466102 0,10.2822881 C0,11.5217797 1.00483051,12.5266102 2.24432203,12.5266102 C2.91491525,12.5266102 3.50991525,12.2266102 3.92118644,11.7602542 C3.86059322,11.7652542 3.80237288,11.7784746 3.74050847,11.7784746 Z" id="Shape" fill="#FFC36E"></path>
            </g>
            <g id="technology" transform="translate(95.000000, 56.000000)" fill-rule="nonzero">
                <path d="M18.9279375,9.35575 L1.014,28.466 C0.365125,29.15825 0.3830625,30.2735625 1.0540625,30.9445 C1.725,31.6154375 2.840375,31.6334375 3.5325625,30.9845625 L22.64275,13.070625 L18.9279375,9.35575 Z" id="Shape" fill="#3F2293"></path>
                <polygon id="Shape" fill="#833CB9" points="24.126 19.122875 21.4725625 16.4695 16.1575625 19.7514375 12.8756875 25.0664375 15.5290625 27.7198125"></polygon>
                <rect id="Rectangle-path" fill="#C784F9" transform="translate(12.875122, 16.469547) rotate(135.000000) translate(-12.875122, -16.469547) " x="6.79643065" y="10.3908557" width="12.1573834" height="12.1573834"></rect>
                <path d="M29.7780625,10.3455 C24.6454375,15.478125 22.2716875,14.2141875 20.0280625,11.9705 C17.7844375,9.7268125 16.5205,7.353 21.6530625,2.2205 C23.89675,-0.0231875 27.534375,-0.0231875 29.7780625,2.2205 C32.02175,4.4641875 32.02175,8.1018125 29.7780625,10.3455 Z" id="Shape" fill="url(#linearGradient-3)"></path>
                <path d="M20.9484375,7.73025 C21.0955,7.73025 21.242625,7.674375 21.3545625,7.5626875 C21.3546875,7.5625625 21.354875,7.562375 21.3550625,7.5621875 C21.57925,7.338 21.57925,6.973125 21.3545625,6.748375 C21.1305625,6.5249375 20.76625,6.5250625 20.5416875,6.748875 C20.3175,6.9730625 20.3175,7.3379375 20.5421875,7.5626875 C20.65425,7.6744375 20.801375,7.73025 20.9484375,7.73025 Z" id="Shape" fill="#000000"></path>
                <path d="M20.9535,8.5971875 C20.661375,8.718625 20.5219375,9.055375 20.642875,9.3480625 C20.701625,9.490125 20.81225,9.60075 20.95425,9.6595625 C21.0251875,9.6889375 21.0996875,9.703625 21.1741875,9.703625 C21.24875,9.703625 21.3231875,9.6889375 21.3940625,9.659625 C21.394375,9.6595625 21.394625,9.6594375 21.3949375,9.65925 C21.6870625,9.5378125 21.8265,9.2010625 21.7055625,8.908375 C21.6468125,8.7663125 21.5361875,8.6556875 21.3941875,8.596875 C21.25225,8.5381875 21.0960625,8.5381875 20.9535,8.5971875 Z" id="Shape" fill="#000000"></path>
            </g>
        </g>
    </g>
</svg>