<?xml version="1.0" encoding="UTF-8"?>
<svg width="180px" height="82px" viewBox="0 0 180 82" version="1.1" xmlns="http://www.w3.org/2000/svg" xmlns:xlink="http://www.w3.org/1999/xlink">
    <!-- Generator: Sketch 47.1 (45422) - http://www.bohemiancoding.com/sketch -->
    <title>bg_first_sunshine_ranking</title>
    <desc>Created with Sketch.</desc>
    <defs>
        <linearGradient x1="18.6340332%" y1="-8.80432129%" x2="74.9237061%" y2="112.310791%" id="linearGradient-1">
            <stop stop-color="#F8D666" offset="0%"></stop>
            <stop stop-color="#E38F0E" offset="100%"></stop>
        </linearGradient>
        <linearGradient x1="92.6166341%" y1="60.476925%" x2="14.9051086%" y2="100%" id="linearGradient-2">
            <stop stop-color="#E1900A" offset="0%"></stop>
            <stop stop-color="#FFE858" offset="100%"></stop>
        </linearGradient>
        <linearGradient x1="50%" y1="121.831554%" x2="43.0022611%" y2="50%" id="linearGradient-3">
            <stop stop-color="#E99947" offset="0%"></stop>
            <stop stop-color="#FEE150" offset="100%"></stop>
        </linearGradient>
    </defs>
    <g id="six" stroke="none" stroke-width="1" fill="none" fill-rule="evenodd">
        <g id="bg_first_sunshine_ranking" transform="translate(-1.000000, 0.000000)">
            <circle id="Oval-8" stroke="url(#linearGradient-1)" stroke-width="2" cx="91" cy="58" r="23"></circle>
            <g id="Group-2-Copy" transform="translate(35.500000, 51.500000) scale(-1, 1) translate(-35.500000, -51.500000) translate(0.000000, 19.000000)" fill="url(#linearGradient-2)" opacity="0.75999999">
                <path d="M7,43 C7,57.9116882 19.6308594,60 33,60 C52.882251,60 67.9214652,34.6889709 67.9214652,34.6889709" id="Oval-9" transform="translate(38.000000, 46.500000) rotate(8.000000) translate(-38.000000, -46.500000) "></path>
                <path d="M6,34 C6,48.9116882 18.6308594,51 32,51 C51.882251,51 66.9214652,25.6889709 66.9214652,25.6889709" id="Oval-9-Copy" transform="translate(37.000000, 37.500000) rotate(-12.000000) translate(-37.000000, -37.500000) "></path>
                <path d="M3.33092891,24.3508665 C3.33092891,39.2625548 15.7436433,41.1264382 29.112784,41.1264382 C48.995035,41.1264382 64.0342491,15.8154092 64.0342491,15.8154092 C64.6299075,14.8826163 64.2275464,14.2729383 63.1444849,14.4521768 L3.33092891,24.3508665 Z" id="Oval-9-Copy-2" transform="translate(33.820455, 27.773677) rotate(-30.000000) translate(-33.820455, -27.773677) "></path>
            </g>
            <g id="Group-2-Copy-2" transform="translate(111.000000, 19.000000)" fill="url(#linearGradient-2)" opacity="0.75999999">
                <path d="M7,43 C7,57.9116882 19.6308594,60 33,60 C52.882251,60 67.9214652,34.6889709 67.9214652,34.6889709" id="Oval-9" transform="translate(38.000000, 46.500000) rotate(8.000000) translate(-38.000000, -46.500000) "></path>
                <path d="M6,34 C6,48.9116882 18.6308594,51 32,51 C51.882251,51 66.9214652,25.6889709 66.9214652,25.6889709" id="Oval-9-Copy" transform="translate(37.000000, 37.500000) rotate(-12.000000) translate(-37.000000, -37.500000) "></path>
                <path d="M3.33092891,24.3508665 C3.33092891,39.2625548 15.7436433,41.1264382 29.112784,41.1264382 C48.995035,41.1264382 64.0342491,15.8154092 64.0342491,15.8154092 C64.6299075,14.8826163 64.2275464,14.2729383 63.1444849,14.4521768 L3.33092891,24.3508665 Z" id="Oval-9-Copy-2" transform="translate(33.820455, 27.773677) rotate(-30.000000) translate(-33.820455, -27.773677) "></path>
            </g>
            <g id="002-crown-1" transform="translate(71.000000, 0.000000)" fill-rule="nonzero">
                <path d="M32.34625,18.1297231 L26.4721875,3.33202051 C26.3614063,3.0529641 25.9849219,3.0529641 25.8742188,3.33202051 L20.0001563,18.1297231 L14.1260938,3.33202051 C14.0153125,3.0529641 13.6388281,3.0529641 13.528125,3.33202051 L7.65390625,18.1297231 L2.10367188,4.14810256 C1.96742188,3.8048 1.48070313,3.9072 1.48070313,4.27905641 L1.48070313,18.1297231 L1.48070313,31.2888615 C1.48070313,31.6746667 1.77851563,31.9874462 2.14585938,31.9874462 L37.8542969,31.9874462 C38.2216406,31.9874462 38.5194531,31.6746667 38.5194531,31.2888615 L38.5194531,18.1297231 L38.5194531,4.27905641 C38.5194531,3.9072 38.0327344,3.80488205 37.8964844,4.14810256 L32.34625,18.1297231 Z" id="Shape" fill="url(#linearGradient-3)"></path>
                <g id="Group" transform="translate(1.406250, 3.117949)" fill="#F7CF6D">
                    <path d="M28.9064844,9.88914872 L28.9064844,9.88914872 L25.0658594,0.213989744 C24.9550781,-0.0650666667 24.5785937,-0.0650666667 24.4678906,0.213989744 L22.7334375,4.58330256 L24.8395312,9.88906667 C25.5930469,11.7870769 28.153125,11.7870769 28.9064844,9.88914872 Z" id="Shape"></path>
                    <path d="M33.0461719,9.70592821 L33.0461719,15.0116923 L33.0461719,28.8694154 L36.4479688,28.8694154 C36.8153125,28.8694154 37.113125,28.5566359 37.113125,28.1708308 L37.113125,15.0117744 L37.113125,1.16110769 C37.113125,0.789251282 36.6264063,0.686933333 36.4901563,1.03015385 L33.0461719,9.70592821 Z" id="Shape"></path>
                    <path d="M16.5603125,9.88914872 L16.5603125,9.88914872 L12.7196875,0.213989744 C12.6089062,-0.0650666667 12.2324219,-0.0650666667 12.1217187,0.213989744 L10.3872656,4.58330256 L12.4933594,9.88906667 C13.2467187,11.7870769 15.806875,11.7870769 16.5603125,9.88914872 Z" id="Shape"></path>
                    <path d="M4.2140625,9.88914872 L4.2140625,9.88914872 L0.697421875,1.03015385 C0.561171875,0.686851282 0.074453125,0.789251282 0.074453125,1.16110769 L0.074453125,9.70609231 L0.1471875,9.88931282 C0.900546875,11.7870769 3.46070312,11.7870769 4.2140625,9.88914872 Z" id="Shape"></path>
                </g>
                <ellipse id="Oval" fill="#F9DE8F" cx="1.79757813" cy="2.38358974" rx="1.48070313" ry="1.55511795"></ellipse>
                <g id="Group" transform="translate(0.000000, 21.251282)" fill="#F09EA0">
                    <ellipse id="Oval" cx="7.65414062" cy="1.62125128" rx="1.48070312" ry="1.55511795"></ellipse>
                    <ellipse id="Oval" cx="20.0001562" cy="1.62125128" rx="1.48070313" ry="1.55511795"></ellipse>
                    <ellipse id="Oval" cx="32.3460938" cy="1.62125128" rx="1.48070313" ry="1.55511795"></ellipse>
                    <path d="M38.5192969,0.0662153846 C39.3370313,0.0662153846 40,0.762502564 40,1.62133333 C40,2.4801641 39.3370313,3.17645128 38.5192969,3.17645128" id="Shape"></path>
                    <path d="M1.48070313,3.17636923 C0.66296875,3.17636923 0,2.48008205 0,1.62125128 C0,0.762420513 0.66296875,0.0661333333 1.48070313,0.0661333333" id="Shape"></path>
                </g>
                <g id="Group" transform="translate(12.343750, 0.000000)" fill="#F9DE8F">
                    <ellipse id="Oval" cx="1.48289062" cy="1.56767179" rx="1.48070313" ry="1.55511795"></ellipse>
                    <ellipse id="Oval" cx="13.8289062" cy="1.56767179" rx="1.48070312" ry="1.55511795"></ellipse>
                    <ellipse id="Oval" cx="25.8550781" cy="2.38358974" rx="1.48070313" ry="1.55511795"></ellipse>
                </g>
            </g>
        </g>
    </g>
</svg>